<?xml version="1.0" encoding="UTF-8" standalone="no"?>
<!DOCTYPE svg PUBLIC "-//W3C//DTD SVG 1.1//EN" "http://www.w3.org/Graphics/SVG/1.1/DTD/svg11.dtd">
<svg width="100%" height="100%" viewBox="0 0 800 800" version="1.1" xmlns="http://www.w3.org/2000/svg" xmlns:xlink="http://www.w3.org/1999/xlink" xml:space="preserve" xmlns:serif="http://www.serif.com/" style="fill-rule:evenodd;clip-rule:evenodd;stroke-linecap:round;stroke-linejoin:round;stroke-miterlimit:1.5;">
    <g id="logo" transform="matrix(0.645473,0,0,0.747575,-535.448,-980.565)">
        <g id="track-x3" transform="matrix(0.947525,0,0,1.09735,47.8184,-175.359)">
            <path d="M1297.54,1805.04L1586.33,1813.54L1603.97,1791.9L1325.18,1783.88L1297.54,1805.04Z" style="fill:rgb(0,195,255);stroke:black;stroke-width:11.52px;"/>
        </g>
        <g id="track-x2" transform="matrix(0.947525,0,0,1.09735,47.8184,-175.359)">
            <path d="M1117.66,1883.65L1577.25,1896.31L1591.44,1871.05L1159.87,1862.19L1117.66,1883.65Z" style="fill:rgb(0,195,255);stroke:black;stroke-width:11.52px;"/>
        </g>
        <g id="track-r" transform="matrix(0.947525,0,0,1.09735,47.8184,-175.359)">
            <path d="M1337.4,2056.48L1403.43,2057.33L1627.05,1735.28L1595.21,1735.52L1337.4,2056.48Z" style="fill:rgb(0,195,255);stroke:black;stroke-width:8.64px;"/>
        </g>
        <g id="d-left" transform="matrix(0.881087,0,0,0.654233,75.6691,779.878)">
            <rect x="925.953" y="937.557" width="249.328" height="1027.22" style="fill:rgb(0,195,255);stroke:black;stroke-width:15.08px;stroke-linecap:square;stroke-linejoin:miter;"/>
        </g>
        <g id="track-x1" transform="matrix(0.947525,0,0,1.09735,47.8184,-175.359)">
            <path d="M939.322,1992.78L1522.84,2019.81L1546.29,1980.01L1002.68,1953.23L939.322,1992.78Z" style="fill:rgb(0,195,255);stroke:black;stroke-width:14.4px;"/>
        </g>
        <g id="track-l" transform="matrix(0.947525,0,0,1.09735,47.8184,-175.359)">
            <path d="M911.268,2057.33L1000.14,2057.33L1492.93,1713.87L1460.1,1714.62L911.268,2057.33Z" style="fill:rgb(0,195,255);stroke:black;stroke-width:8.64px;"/>
        </g>
        <g id="d-right" transform="matrix(0.75772,0,0,0.654233,221.431,780.167)">
            <path d="M1174.26,937.117L1174.53,1161.5C1277.66,1160.5 1393.08,1153.11 1461.5,1178.98C1531.24,1196.02 1610.43,1270.12 1638.79,1340.5C1650.71,1370.11 1658.59,1390.24 1662.21,1416.87C1664.26,1434.19 1669.25,1473.32 1672.08,1505.24L1669.88,1953.23C1724.77,1946.49 1781.62,1908.9 1857.33,1803.51C1898.09,1753.92 1933.8,1658.16 1948.77,1505.24C1947.91,1379.77 1926.25,1275.44 1879.73,1196.37C1843.06,1130.46 1785.72,1068.42 1701.87,1011.33C1623.94,968.539 1539.61,946.308 1450.76,938.57L1174.26,937.117Z" style="fill:rgb(0,195,255);stroke:black;stroke-width:16.36px;stroke-linecap:square;stroke-linejoin:miter;"/>
        </g>
        <g id="d-mask" transform="matrix(3.33055,0,0,0.983631,334.543,1333.48)">
            <rect x="228.494" y="64.822" width="6.772" height="140.737" style="fill:rgb(0,195,255);"/>
        </g>
    </g>
    <g id="v" transform="matrix(18.1092,0,0,18.1092,597.31,597.31)">
        <g transform="matrix(1,0,0,1,-12,-12)">
            <path d="M7.97,16L5,19C4.67,19.3 4.23,19.5 3.75,19.5C2.79,19.5 2,18.71 2,17.75L2,17.5L3,10.12C3.21,7.81 5.14,6 7.5,6L16.5,6C18.86,6 20.79,7.81 21,10.12L22,17.5L22,17.75C22,18.71 21.21,19.5 20.25,19.5C19.77,19.5 19.33,19.3 19,19L16.03,16L7.97,16M7,8L7,10L5,10L5,11L7,11L7,13L8,13L8,11L10,11L10,10L8,10L8,8L7,8M16.5,8C16.089,8 15.75,8.339 15.75,8.75C15.75,9.161 16.089,9.5 16.5,9.5C16.911,9.5 17.25,9.161 17.25,8.75C17.25,8.339 16.911,8 16.5,8M14.75,9.75C14.339,9.75 14,10.089 14,10.5C14,10.911 14.339,11.25 14.75,11.25C15.161,11.25 15.5,10.911 15.5,10.5C15.5,10.089 15.161,9.75 14.75,9.75M18.25,9.75C17.839,9.75 17.5,10.089 17.5,10.5C17.5,10.911 17.839,11.25 18.25,11.25C18.661,11.25 19,10.911 19,10.5C19,10.089 18.661,9.75 18.25,9.75M16.5,11.5C16.089,11.5 15.75,11.839 15.75,12.25C15.75,12.661 16.089,13 16.5,13C16.911,13 17.25,12.661 17.25,12.25C17.25,11.839 16.911,11.5 16.5,11.5Z" style="fill:rgb(67,242,13);fill-rule:nonzero;"/>
        </g>
    </g>
</svg>
