<?xml version="1.0" encoding="UTF-8" standalone="no"?>
<!DOCTYPE svg PUBLIC "-//W3C//DTD SVG 1.1//EN" "http://www.w3.org/Graphics/SVG/1.1/DTD/svg11.dtd">
<svg width="100%" height="100%" viewBox="0 0 800 800" version="1.1" xmlns="http://www.w3.org/2000/svg" xmlns:xlink="http://www.w3.org/1999/xlink" xml:space="preserve" xmlns:serif="http://www.serif.com/" style="fill-rule:evenodd;clip-rule:evenodd;stroke-linecap:round;stroke-linejoin:round;stroke-miterlimit:1.5;">
    <g id="logo" transform="matrix(0.645473,0,0,0.747575,-535.448,-980.565)">
        <g id="track-x3" transform="matrix(0.947525,0,0,1.09735,47.8184,-175.359)">
            <path d="M1297.54,1805.04L1586.33,1813.54L1603.97,1791.9L1325.18,1783.88L1297.54,1805.04Z" style="fill:rgb(0,195,255);stroke:black;stroke-width:11.52px;"/>
        </g>
        <g id="track-x2" transform="matrix(0.947525,0,0,1.09735,47.8184,-175.359)">
            <path d="M1117.66,1883.65L1577.25,1896.31L1591.44,1871.05L1159.87,1862.19L1117.66,1883.65Z" style="fill:rgb(0,195,255);stroke:black;stroke-width:11.52px;"/>
        </g>
        <g id="track-r" transform="matrix(0.947525,0,0,1.09735,47.8184,-175.359)">
            <path d="M1337.4,2056.48L1403.43,2057.33L1627.05,1735.28L1595.21,1735.52L1337.4,2056.48Z" style="fill:rgb(0,195,255);stroke:black;stroke-width:8.64px;"/>
        </g>
        <g id="d-left" transform="matrix(0.881087,0,0,0.654233,75.6691,779.878)">
            <rect x="925.953" y="937.557" width="249.328" height="1027.22" style="fill:rgb(0,195,255);stroke:black;stroke-width:15.08px;stroke-linecap:square;stroke-linejoin:miter;"/>
        </g>
        <g id="track-x1" transform="matrix(0.947525,0,0,1.09735,47.8184,-175.359)">
            <path d="M939.322,1992.78L1522.84,2019.81L1546.29,1980.01L1002.68,1953.23L939.322,1992.78Z" style="fill:rgb(0,195,255);stroke:black;stroke-width:14.4px;"/>
        </g>
        <g id="track-l" transform="matrix(0.947525,0,0,1.09735,47.8184,-175.359)">
            <path d="M911.268,2057.33L1000.14,2057.33L1492.93,1713.87L1460.1,1714.62L911.268,2057.33Z" style="fill:rgb(0,195,255);stroke:black;stroke-width:8.64px;"/>
        </g>
        <g id="d-right" transform="matrix(0.75772,0,0,0.654233,221.431,780.167)">
            <path d="M1174.26,937.117L1174.53,1161.5C1277.66,1160.5 1393.08,1153.11 1461.5,1178.98C1531.24,1196.02 1610.43,1270.12 1638.79,1340.5C1650.71,1370.11 1658.59,1390.24 1662.21,1416.87C1664.26,1434.19 1669.25,1473.32 1672.08,1505.24L1669.88,1953.23C1724.77,1946.49 1781.62,1908.9 1857.33,1803.51C1898.09,1753.92 1933.8,1658.16 1948.77,1505.24C1947.91,1379.77 1926.25,1275.44 1879.73,1196.37C1843.06,1130.46 1785.72,1068.42 1701.87,1011.33C1623.94,968.539 1539.61,946.308 1450.76,938.57L1174.26,937.117Z" style="fill:rgb(0,195,255);stroke:black;stroke-width:16.36px;stroke-linecap:square;stroke-linejoin:miter;"/>
        </g>
        <g id="d-mask" transform="matrix(3.33055,0,0,0.983631,334.543,1333.48)">
            <rect x="228.494" y="64.822" width="6.772" height="140.737" style="fill:rgb(0,195,255);"/>
        </g>
    </g>
    <g transform="matrix(16.6671,0,0,16.6671,408.87,404.789)">
        <path d="M16,14.5C16,15.6 15.7,18 13.8,20.8L13,16L13.9,14.1C13.3,14.1 12.7,14 12,14C11.3,14 10.7,14.1 10.1,14.1L11,16L10.2,20.8C8.3,18.1 8,15.6 8,14.5C5.6,15.2 4,16.5 4,18L4,22L20,22L20,18C20,16.5 18.4,15.2 16,14.5M6,4.5C6,3.1 8.7,2 12,2C15.3,2 18,3.1 18,4.5C18,4.9 17.8,5.2 17.5,5.5C16.6,4.6 14.5,4 12,4C9.5,4 7.4,4.6 6.5,5.5C6.2,5.2 6,4.9 6,4.5M15.9,7.4C16,7.6 16,7.8 16,8C16,10.2 14.2,12 12,12C9.8,12 8,10.2 8,8C8,7.8 8,7.6 8.1,7.4C9.1,7.8 10.5,8 12,8C13.5,8 14.9,7.8 15.9,7.4M16.6,6.1C15.5,6.6 13.9,7 12,7C10.1,7 8.5,6.6 7.4,6.1C8.1,5.5 9.8,5 12,5C14.2,5 15.9,5.5 16.6,6.1Z" style="fill:rgb(242,180,13);fill-rule:nonzero;"/>
    </g>
</svg>
