<?xml version="1.0" encoding="UTF-8" standalone="no"?>
<!DOCTYPE svg PUBLIC "-//W3C//DTD SVG 1.0//EN" "http://www.w3.org/TR/2001/REC-SVG-20010904/DTD/svg10.dtd">
<svg
   xmlns:svg="http://www.w3.org/2000/svg"
   xmlns="http://www.w3.org/2000/svg"
   version="1.0"
   width="100%"
   height="100%"
   viewBox="0 0 200 200"
   id="svg2437">
  <defs
     id="defs2439" />
  <g
     id="layer1">
    <g
       transform="matrix(1.6565708,0,0,1.6565708,-716.29261,-1015.1344)"
       id="g3415">
      <path
         d="M 674.70753,814.68359 A 49.171829,49.171829 0 1 1 576.36388,814.68359 A 49.171829,49.171829 0 1 1 674.70753,814.68359 z"
         transform="matrix(0.8853755,0,0,0.8853755,-61.073521,-48.142605)"
         id="path2483"
         style="opacity:1;fill:#8a0405;fill-opacity:1;stroke:none;stroke-width:1.09899998;stroke-linecap:round;stroke-linejoin:round;stroke-miterlimit:5;stroke-dasharray:none;stroke-dashoffset:4.3;stroke-opacity:1" />
      <path
         d="M 506.64479,711.20578 L 511.46152,708.97078 C 512.21644,702.42109 512.56027,695.61081 512.94228,689.02711 C 513.16626,684.53584 513.27217,679.62837 514.20082,677.30744 C 515.73061,673.48412 516.51107,673.20147 514.4507,670.53721 C 511.80112,667.11103 505.51624,662.25687 503.72981,662.25687 C 503.00279,662.25687 501.60438,661.88787 501.60438,661.43687 C 501.60438,659.44033 494.72894,652.14696 490.63742,650.16629 C 488.16389,648.96887 485.60438,647.6686 485.60438,647.16766 C 485.60438,646.66673 484.87763,646.25687 483.98937,646.25687 C 482.52109,646.25687 482.52754,646.02309 484.06038,643.68369 C 485.69957,641.18196 485.69042,641.14045 483.73108,642.18906 C 482.62266,642.78227 481.43915,643.71521 481.10106,644.26225 C 480.14882,645.80301 477.09734,645.35684 477.60438,643.75687 C 479.08351,639.08949 476.59973,641.41034 474.29683,646.09289 C 473.27913,648.16221 472.60438,651.15172 472.60438,651.77325 C 472.60438,652.39478 471.8986,653.66904 471.03599,655.47796 C 469.80342,658.06269 469.70089,659.38052 470.55715,661.63266 C 471.50868,664.13536 472.02408,664.42293 474.62554,663.90264 C 477.44029,663.33969 477.60438,663.48534 477.60438,666.54668 C 477.60438,668.32857 478.50438,671.46569 479.60438,673.51805 C 480.70438,675.57042 481.60438,677.96777 481.60438,678.84552 C 481.60438,679.72326 482.50438,681.58558 483.60438,682.984 C 486.24237,686.33766 486.12723,688.70482 483.13532,692.62742 C 479.75704,697.05657 477.60438,702.51312 477.60438,706.6472 C 477.60438,709.66839 477.63328,710.8613 480.47557,711.75493 C 488.35117,714.23107 498.83953,714.09663 506.64479,711.20578 z M 505.1328,702.30286 C 504.38392,701.09114 505.56781,696.14419 506.6058,696.25687 C 507.08448,696.30883 508.44931,697.05989 508.60438,701.33866 C 508.63965,702.31194 508.47585,703.17697 507.82547,703.40383 C 507.15404,703.63803 505.66317,703.16101 505.1328,702.30286 z M 494.62224,695.43641 C 487.98747,693.65378 489.60438,693.81016 489.60438,689.31235 C 489.60438,685.75018 490.06849,684.44813 491.70176,683.42813 C 493.79422,680.54616 495.22287,683.90105 496.58937,686.25687 C 498.33859,690.03662 500.00113,691.2128 500.90854,691.36904 C 502.7804,691.69135 502.72055,693.65786 502.22833,695.61904 C 501.45158,698.71385 500.9462,698.21282 494.62224,695.43641 z"
         id="path2481"
         style="fill:#ffffff" />
      <path
         d="M 664.2662,814.68359 A 38.730499,38.730499 0 1 1 586.80521,814.68359 A 38.730499,38.730499 0 1 1 664.2662,814.68359 z"
         transform="matrix(1.2806325,0,0,1.2806325,-308.32088,-370.152)"
         id="path2485"
         style="opacity:1;fill:none;fill-opacity:1;stroke:#000000;stroke-width:15.30493736;stroke-linecap:round;stroke-linejoin:round;stroke-miterlimit:5;stroke-dasharray:none;stroke-dashoffset:4.3;stroke-opacity:1" />
      <path
         d="M 492.97768,617.68303 L 490.10268,618.05803 L 491.19643,626.49553 L 485.85268,618.62053 L 482.47768,619.05803 L 484.04018,631.37053 L 486.91518,630.99553 L 485.82143,622.55803 L 491.16518,630.40178 L 494.54018,629.96428 L 492.97768,617.68303 z M 500.63393,617.99553 C 499.59983,618.04727 498.71955,618.47168 497.94643,619.21428 C 496.91562,620.20445 496.23115,621.668 495.91518,623.65178 C 495.60008,625.6301 495.77423,627.2654 496.44643,628.52678 C 497.11861,629.78819 498.2016,630.53869 499.69643,630.77678 C 501.19539,631.01553 502.44895,630.64227 503.47768,629.65178 C 504.50639,628.66129 505.1938,627.16132 505.50893,625.18303 C 505.82489,623.19925 505.64774,621.56911 504.97768,620.30803 C 504.30757,619.04697 503.22661,618.29681 501.72768,618.05803 C 501.35398,617.99851 500.97863,617.97828 500.63393,617.99553 z M 510.13393,620.24553 L 505.13393,631.58928 L 508.04018,632.87053 L 509.94643,628.58928 L 510.79018,628.93303 C 511.26582,629.14363 511.59611,629.44271 511.79018,629.77678 C 511.9842,630.11083 512.07529,630.6181 512.10268,631.30803 L 512.25893,634.71428 L 515.35268,636.12053 L 515.19643,632.18303 C 515.1616,631.3869 515.05787,630.76939 514.88393,630.30803 C 514.70994,629.84669 514.43082,629.48237 514.07143,629.21428 C 514.90088,629.30921 515.62178,629.19106 516.19643,628.87053 C 516.77105,628.55002 517.20859,628.02565 517.54018,627.27678 C 518.01962,626.19394 518.04534,625.24202 517.57143,624.43303 C 517.09747,623.62403 516.09538,622.87525 514.60268,622.21428 L 510.13393,620.24553 z M 500.82143,620.33928 C 500.99115,620.32078 501.16948,620.34135 501.35268,620.37053 C 502.08966,620.48792 502.62447,620.90824 502.91518,621.68303 C 503.2059,622.45781 503.24559,623.5183 503.04018,624.80803 C 502.83562,626.0923 502.46347,627.03692 501.94643,627.68303 C 501.42938,628.32915 500.80841,628.61293 500.07143,628.49553 C 499.3386,628.37881 498.8309,627.92654 498.54018,627.15178 C 498.24945,626.37701 498.21063,625.34229 498.41518,624.05803 C 498.6206,622.7683 498.96066,621.79792 499.47768,621.15178 C 499.86546,620.6672 500.31227,620.39477 500.82143,620.33928 z M 512.13393,623.65178 L 513.35268,624.21428 C 513.96493,624.48538 514.37312,624.78026 514.54018,625.12053 C 514.70724,625.4608 514.67494,625.88568 514.44643,626.40178 C 514.21565,626.92297 513.90666,627.22922 513.54018,627.33928 C 513.1737,627.44936 512.68367,627.39163 512.07143,627.12053 L 510.85268,626.55803 L 512.13393,623.65178 z M 521.63393,625.08928 L 520.13393,626.99553 L 523.35268,629.55803 L 517.13393,637.33928 L 519.60268,639.33928 L 525.85268,631.55803 L 529.04018,634.12053 L 530.57143,632.21428 L 521.63393,625.08928 z M 463.16964,625.86607 L 453.76339,632.33482 L 455.13839,634.33482 L 458.51339,631.99107 L 464.16964,640.20982 L 466.79464,638.39732 L 461.13839,630.17857 L 464.54464,627.83482 L 463.16964,625.86607 z M 532.25893,633.87053 L 522.69643,641.71428 L 524.44643,643.87053 L 528.50893,640.55803 L 531.10268,643.71428 L 527.04018,647.05803 L 528.82143,649.21428 L 538.41518,641.37053 L 536.63393,639.21428 L 532.97768,642.18303 L 530.38393,639.02678 L 534.04018,636.02678 L 532.25893,633.87053 z M 451.32589,636.08482 L 448.79464,638.92857 L 454.95089,650.55357 L 452.88839,649.58482 L 450.51339,654.67857 L 447.95089,653.49107 L 449.42803,650.29975 L 447.24053,649.2685 L 445.76339,652.45982 L 443.66964,651.49107 L 445.95089,646.55357 L 443.76339,645.55357 L 440.13839,653.36607 L 451.35714,658.58482 L 455.07589,650.61607 L 455.01339,650.58482 L 457.10714,648.20982 L 455.95089,646.11607 L 459.29464,642.39732 L 461.48214,643.30357 L 463.63839,640.89732 L 451.32589,636.08482 z M 452.23214,639.42857 L 457.04464,641.45982 L 454.76339,643.99107 L 452.23214,639.42857 z M 541.00893,645.18303 L 529.69643,650.24553 L 533.29018,658.27678 L 535.47768,657.27678 L 533.19643,652.18303 L 535.79018,650.99553 L 537.32448,654.47572 L 539.54323,653.47572 L 537.97768,650.02678 L 540.10268,649.08928 L 542.32143,654.02678 L 544.50893,653.05803 L 541.00893,645.18303 z M 441.10714,658.45982 C 440.32559,658.43399 439.69355,658.67824 439.16964,659.14732 C 438.47113,659.77278 437.92658,660.86547 437.57589,662.45982 L 436.54464,667.24107 L 448.63839,669.89732 L 449.32589,666.77232 L 444.73214,665.77232 L 444.95089,664.86607 C 445.06264,664.35804 445.25587,663.99769 445.54464,663.74107 C 445.8334,663.48446 446.31141,663.28018 446.98214,663.11607 L 450.29464,662.27232 L 451.04464,658.95982 L 447.23214,659.89732 C 446.45886,660.08987 445.86838,660.32252 445.45089,660.58482 C 445.0334,660.84713 444.73582,661.17929 444.54464,661.58482 C 444.47262,660.75306 444.2231,660.08423 443.79464,659.58482 C 443.3662,659.08546 442.75076,658.76078 441.95089,658.58482 C 441.66174,658.52122 441.36766,658.46843 441.10714,658.45982 z M 546.19643,657.87053 L 533.94643,659.71428 L 534.44643,662.87053 L 539.07143,662.18303 L 539.19643,663.05803 C 539.27403,663.57239 539.21787,663.99626 539.04018,664.33928 C 538.86247,664.68229 538.51388,665.07082 537.94643,665.46428 L 535.10268,667.40178 L 535.63393,670.77678 L 538.85268,668.52678 C 539.50571,668.07007 539.96304,667.63994 540.25893,667.24553 C 540.55479,666.8511 540.72563,666.44265 540.75893,665.99553 C 541.12404,666.74633 541.58631,667.27647 542.16518,667.58928 C 542.74403,667.90208 543.44907,667.99271 544.25893,667.87053 C 545.42991,667.69384 546.23695,667.20462 546.66518,666.37053 C 547.09337,665.5364 547.18995,664.29726 546.94643,662.68303 L 546.19643,657.87053 z M 440.98214,661.74107 C 441.19501,661.71352 441.42524,661.74294 441.70089,661.80357 C 442.25758,661.92603 442.64509,662.15385 442.82589,662.49107 C 443.00669,662.82832 443.03224,663.30586 442.88839,663.95982 L 442.57589,665.30357 L 439.48214,664.61607 L 439.76339,663.30357 C 439.90724,662.64962 440.1507,662.19125 440.45089,661.95982 C 440.601,661.84411 440.76927,661.76862 440.98214,661.74107 z M 544.38393,661.37053 L 544.60268,662.68303 C 544.70257,663.34513 544.64382,663.85943 544.44643,664.18303 C 544.249,664.50663 543.87956,664.69253 543.32143,664.77678 C 542.75781,664.86181 542.32976,664.77692 542.04018,664.52678 C 541.75059,664.27665 541.54634,663.84515 541.44643,663.18303 L 541.25893,661.83928 L 544.38393,661.37053 z M 442.29464,670.49107 L 442.23214,675.45982 L 444.38839,675.49107 L 444.38839,673.52232 L 446.79464,673.55357 C 446.88096,673.78132 446.94344,674.04943 446.98214,674.33482 C 447.02086,674.62021 447.04788,674.90907 447.04464,675.24107 C 447.03269,676.464 446.67124,677.4278 445.95089,678.08482 C 445.23057,678.74188 444.19987,679.0664 442.88839,679.05357 C 441.56587,679.04065 440.56149,678.68697 439.85714,677.99107 C 439.15282,677.29519 438.81347,676.29504 438.82589,675.02232 C 438.83261,674.33616 438.93805,673.64133 439.13839,672.95982 C 439.33876,672.27833 439.64499,671.61647 440.04464,670.92857 L 437.48214,670.89732 C 437.17126,671.56392 436.92572,672.26849 436.76339,673.02232 C 436.60108,673.77615 436.52144,674.5728 436.51339,675.39732 C 436.49252,677.53329 437.03621,679.22016 438.16964,680.45982 C 439.30309,681.69948 440.85953,682.31532 442.85714,682.33482 C 444.83264,682.35413 446.41036,681.77984 447.57589,680.58482 C 448.74144,679.38978 449.33694,677.74258 449.35714,675.67857 C 449.36607,674.76554 449.29245,673.88194 449.10714,673.02232 C 448.92185,672.16273 448.64298,671.35418 448.26339,670.55357 L 442.29464,670.49107 z M 535.47768,670.99553 L 535.29018,673.74553 L 543.79018,674.33928 L 535.00893,677.80803 L 534.79018,681.02678 L 547.16518,681.90178 L 547.35268,679.18303 L 538.88393,678.58928 L 547.63393,675.12053 L 547.85268,671.90178 L 535.47768,670.99553 z M 527.375,699.22768 L 524.875,701.69643 L 525.96875,706.82143 L 520.875,705.66518 L 518.375,708.10268 L 526.78125,709.88393 L 530.46875,713.60268 L 532.71875,711.35268 L 529.0625,707.63393 L 527.375,699.22768 z M 458.9375,699.25893 L 449.53125,707.32143 L 451.625,709.72768 L 455.1875,706.69643 L 455.78125,707.38393 C 456.11955,707.77907 456.28147,708.15512 456.3125,708.54018 C 456.34349,708.92524 456.24158,709.43712 455.96875,710.07143 L 454.59375,713.22768 L 456.8125,715.82143 L 458.34375,712.19643 C 458.65567,711.46312 458.83301,710.87518 458.875,710.38393 C 458.91698,709.89266 458.83366,709.43705 458.625,709.04018 C 459.33241,709.48354 460.03083,709.67527 460.6875,709.63393 C 461.34416,709.59258 461.97162,709.32284 462.59375,708.79018 C 463.49331,708.01998 463.92244,707.162 463.84375,706.22768 C 463.76502,705.29338 463.18669,704.1865 462.125,702.94643 L 458.9375,699.25893 z M 459.28125,703.19643 L 460.15625,704.19643 C 460.59172,704.70507 460.80849,705.16112 460.8125,705.54018 C 460.81648,705.91923 460.58498,706.29808 460.15625,706.66518 C 459.72327,707.03588 459.31562,707.19267 458.9375,707.13393 C 458.55938,707.0752 458.15424,706.79884 457.71875,706.29018 L 456.84375,705.25893 L 459.28125,703.19643 z M 470.25,709.79018 L 460,718.16518 L 462.75,719.79018 L 464.59375,718.22768 L 468.90625,720.75893 L 468.40625,723.10268 L 471.1875,724.72768 L 473.53125,711.72768 L 470.25,709.79018 z M 515.75,709.82143 L 512.46875,711.79018 L 514.9375,724.75893 L 517.6875,723.10268 L 517.1875,720.75893 L 521.46875,718.19643 L 523.3125,719.72768 L 526.0625,718.07143 L 515.75,709.82143 z M 470.40625,713.25893 L 469.375,718.38393 L 466.4375,716.66518 L 470.40625,713.25893 z M 515.625,713.29018 L 519.59375,716.63393 L 516.6875,718.38393 L 515.625,713.29018 z M 509.3125,713.57143 L 506.5,714.25893 L 506.75,723.50893 L 502.59375,715.25893 L 499.75,715.97768 L 500,725.22768 L 495.8125,716.97768 L 493,717.69643 L 498.75,729.04018 L 502.15625,728.16518 L 501.875,718.50893 L 506.28125,727.13393 L 509.65625,726.25893 L 509.3125,713.57143 z M 477.375,713.63393 L 473.78125,725.50893 L 476.84375,726.41518 L 480.4375,714.57143 L 477.375,713.63393 z M 483.90625,715.50893 L 481.84375,727.72768 L 490.53125,729.19643 L 490.9375,726.82143 L 485.40625,725.88393 L 487.0625,716.04018 L 483.90625,715.50893 z"
         id="text3266"
         style="font-size:17px;font-style:normal;font-variant:normal;font-weight:bold;font-stretch:normal;text-align:start;line-height:125%;writing-mode:lr-tb;text-anchor:start;fill:#ffffff;fill-opacity:1;stroke:none;stroke-width:1px;stroke-linecap:butt;stroke-linejoin:miter;stroke-opacity:1;font-family:DejaVu Sans;-inkscape-font-specification:DejaVu Sans Bold" />
    </g>
  </g>
</svg>
